<?xml version="1.0" encoding="UTF-8" standalone="no"?>
<!-- Created with Inkscape (http://www.inkscape.org/) -->

<svg
   width="136.02704mm"
   height="41.89233mm"
   viewBox="0 0 136.02704 41.89233"
   version="1.1"
   id="svg5"
   inkscape:version="1.1 (c68e22c387, 2021-05-23)"
   sodipodi:docname="iotea-title.svg"
   xmlns:inkscape="http://www.inkscape.org/namespaces/inkscape"
   xmlns:sodipodi="http://sodipodi.sourceforge.net/DTD/sodipodi-0.dtd"
   xmlns="http://www.w3.org/2000/svg"
   xmlns:svg="http://www.w3.org/2000/svg">
  <sodipodi:namedview
     id="namedview7"
     pagecolor="#505050"
     bordercolor="#eeeeee"
     borderopacity="1"
     inkscape:pageshadow="0"
     inkscape:pageopacity="0"
     inkscape:pagecheckerboard="0"
     inkscape:document-units="mm"
     showgrid="false"
     inkscape:zoom="3.1108586"
     inkscape:cx="334.15212"
     inkscape:cy="108.8124"
     inkscape:window-width="2560"
     inkscape:window-height="1369"
     inkscape:window-x="2552"
     inkscape:window-y="5"
     inkscape:window-maximized="1"
     inkscape:current-layer="layer1"
     fit-margin-top="0"
     fit-margin-left="0"
     fit-margin-right="0"
     fit-margin-bottom="0" />
  <defs
     id="defs2" />
  <g
     inkscape:label="Layer 1"
     inkscape:groupmode="layer"
     id="layer1"
     transform="translate(-43.111256,-148.9672)">
    <a
       id="a2341"
       transform="matrix(0.89611606,0,0,0.89611606,8.5220121,16.198832)"
       style="fill:none;fill-opacity:1;stroke:#ffba01;stroke-width:2;stroke-miterlimit:4;stroke-dasharray:none;stroke-opacity:1">
      <path
         style="color:#000000;fill:#ffba01;stroke:none;stroke-width:6.77379;-inkscape-stroke:none"
         d="m 168.80664,0 v 10.333984 8 10.105469 c -2.81881,0.827305 -4.72656,2.294954 -4.72656,2.294922 l -0.0332,0.03516 -22.24805,17.957031 c -1.85531,1.096846 -3.00808,2.859381 -3.49024,4.361329 -0.51216,1.595431 -0.47656,2.978746 -0.47656,3.625 v 55.613279 c 0,1.62212 -0.009,2.88282 0.12695,4.11328 0.13616,1.23046 0.45332,2.70141 1.62696,3.91016 1.17363,1.20871 2.68265,1.56742 3.89648,1.70703 1.21383,0.13954 2.42251,0.125 3.96875,0.125 h 49.83789 c 1.52369,0 2.73486,0.007 3.95508,-0.15234 1.22022,-0.15716 2.70931,-0.55835 3.85742,-1.74024 1.14812,-1.18189 1.49915,-2.63262 1.65235,-3.86914 0.15319,-1.23649 0.15234,-2.49479 0.15234,-4.09375 V 56.710938 c 0,-3.675493 -2.19741,-6.22821 -3.43945,-7.519532 L 203.32031,49.03125 180.73047,30.794922 h -0.006 c -1.72198,-1.392568 -3.55986,-2.195145 -5.33984,-2.587891 v -9.873047 h 48.83789 V 155.10352 h 20.625 V 18.333984 h 55.41601 V 0 Z m 4.05274,34.603516 c 0.21889,0.0033 0.44181,0.01904 0.66796,0.05273 v 0.002 c 0.9046,0.134799 1.87304,0.535874 2.94336,1.402344 v 0.0059 l 22.14649,17.88086 c 1.17927,1.215489 1.51562,1.300894 1.51562,2.765625 v 55.611329 c 0,1.43899 -0.0333,2.39806 -0.0918,3.0039 -0.56627,0.0515 -1.41759,0.0781 -2.75196,0.0781 h -49.83789 c -1.33919,0 -2.17024,-0.0221 -2.76562,-0.0644 -0.0498,-0.63393 -0.0801,-1.571 -0.0801,-3.01758 V 56.710938 c 0,-0.646254 0.0418,-1.208186 0.15234,-1.552735 0.11062,-0.344515 0.0905,-0.393122 0.51758,-0.615234 l 0.30273,-0.160157 22.61719,-18.263671 0.0137,-0.0059 c 0.0108,-0.0068 1.09466,-0.816172 2.74414,-1.24414 0.6216,-0.161301 1.24957,-0.275448 1.90626,-0.265625 z"
         id="path824"
         transform="matrix(0.29525565,0,0,0.29525565,38.599067,148.15979)" />
    </a>
    <g
       aria-label="I"
       id="text1862"
       style="font-size:56.4444px;line-height:1.25;letter-spacing:0px;word-spacing:0px;fill:#ffba01;fill-opacity:1;stroke-width:1.44278"
       transform="translate(20.881558,0.15551055)">
      <path
         d="M 59.316972,190.00514 H 43.111256 v -4.18923 H 48.4856 v -32.65948 h -5.374344 v -4.18923 h 16.205716 v 4.18923 h -5.374344 v 32.65948 h 5.374344 z"
         id="path7793"
         style="fill:#ffba01;fill-opacity:1" />
    </g>
    <g
       aria-label="Tea"
       id="text2958"
       style="font-size:56.4444px;letter-spacing:0px;word-spacing:0px;stroke-width:1.48119">
      <path
         style="color:#000000;fill:#ffba01;-inkscape-stroke:none"
         d="m 147.36076,175.1499 h -22.6825 q 0,2.83876 0.85439,4.96094 0.85438,2.09461 2.34266,3.44509 1.43316,1.32291 3.38997,1.98437 1.98437,0.66146 4.3546,0.66146 3.14192,0 6.31141,-1.24023 3.19704,-1.2678 4.54752,-2.48047 h 0.27561 v 5.64995 q -2.61827,1.10243 -5.34679,1.84657 -2.72851,0.74414 -5.73263,0.74414 -7.66189,0 -11.96136,-4.13411 -4.29948,-4.16167 -4.29948,-11.796 0,-7.55164 4.10655,-11.98892 4.13411,-4.43728 10.85894,-4.43728 6.22872,0 9.59113,3.63802 3.38998,3.63802 3.38998,10.33528 z m -5.04362,-3.96874 q -0.0276,-4.07899 -2.06706,-6.31142 -2.01193,-2.23242 -6.14604,-2.23242 -4.16167,0 -6.64214,2.45291 -2.45291,2.45291 -2.78364,6.09093 z"
         id="path7770" />
      <path
         style="color:#000000;fill:#ffba01;-inkscape-stroke:none"
         d="m 179.13829,190.00514 h -5.15386 v -3.27973 q -0.68902,0.46854 -1.87413,1.32292 -1.15755,0.82682 -2.25998,1.32292 -1.29535,0.63389 -2.97656,1.0473 -1.6812,0.44098 -3.94119,0.44098 -4.16167,0 -7.05555,-2.75608 -2.89387,-2.75607 -2.89387,-7.02799 0,-3.50021 1.48828,-5.64995 1.51584,-2.1773 4.29947,-3.41753 2.8112,-1.24024 6.75238,-1.68121 3.94119,-0.44097 8.46115,-0.66146 v -0.79926 q 0,-1.76388 -0.6339,-2.92144 -0.60633,-1.15755 -1.76388,-1.81901 -1.10243,-0.63389 -2.64583,-0.85438 -1.54341,-0.22048 -3.22461,-0.22048 -2.0395,0 -4.54752,0.55121 -2.50803,0.52365 -5.18142,1.5434 h -0.27561 v -5.2641 q 1.51584,-0.41341 4.38216,-0.9095 2.86631,-0.4961 5.64995,-0.4961 3.25217,0 5.64995,0.55122 2.42535,0.52365 4.18924,1.81901 1.73632,1.26779 2.64583,3.27972 0.9095,2.01194 0.9095,4.9885 z m -5.15386,-7.5792 v -8.57139 q -2.37022,0.1378 -5.59483,0.41341 -3.19704,0.27561 -5.07118,0.79926 -2.23242,0.6339 -3.61045,1.98437 -1.37804,1.32292 -1.37804,3.66558 0,2.64583 1.59852,3.99631 1.59853,1.32292 4.87825,1.32292 2.72852,0 4.9885,-1.04731 2.25998,-1.07487 4.18923,-2.56315 z"
         id="path7772" />
    </g>
  </g>
</svg>
